<mxfile host="app.diagrams.net" modified="2023-05-08T12:03:46.651Z" agent="Mozilla/5.0 (Windows NT 10.0; Win64; x64) AppleWebKit/537.36 (KHTML, like Gecko) Chrome/113.0.0.0 Safari/537.36 Edg/113.0.1774.35" etag="VbLYILahkXewG0HY_HsV" version="21.2.9" type="device">
  <diagram name="Página-1" id="uF-EaxrcLDtG00HeucaD">
    <mxGraphModel dx="1379" dy="788" grid="1" gridSize="10" guides="1" tooltips="1" connect="1" arrows="1" fold="1" page="1" pageScale="1" pageWidth="1654" pageHeight="2336" math="0" shadow="0">
      <root>
        <mxCell id="0" />
        <mxCell id="1" parent="0" />
        <mxCell id="5Ftsby0MKJ4DKYGOOYDx-1" value="Actor" style="shape=umlActor;verticalLabelPosition=bottom;verticalAlign=top;html=1;outlineConnect=0;" vertex="1" parent="1">
          <mxGeometry x="160" y="390" width="30" height="60" as="geometry" />
        </mxCell>
        <mxCell id="5Ftsby0MKJ4DKYGOOYDx-2" value="" style="endArrow=none;html=1;rounded=0;entryX=0;entryY=0.5;entryDx=0;entryDy=0;" edge="1" parent="1" target="5Ftsby0MKJ4DKYGOOYDx-5">
          <mxGeometry width="50" height="50" relative="1" as="geometry">
            <mxPoint x="220" y="430" as="sourcePoint" />
            <mxPoint x="400" y="430" as="targetPoint" />
            <Array as="points">
              <mxPoint x="320" y="430" />
            </Array>
          </mxGeometry>
        </mxCell>
        <mxCell id="5Ftsby0MKJ4DKYGOOYDx-5" value="Sistema de prestamos" style="fontStyle=0;html=1;whiteSpace=wrap;" vertex="1" parent="1">
          <mxGeometry x="420" y="410" width="120" height="40" as="geometry" />
        </mxCell>
        <mxCell id="5Ftsby0MKJ4DKYGOOYDx-6" value="Listado de títulos" style="fontStyle=0;html=1;whiteSpace=wrap;" vertex="1" parent="1">
          <mxGeometry x="710" y="410" width="120" height="40" as="geometry" />
        </mxCell>
        <mxCell id="5Ftsby0MKJ4DKYGOOYDx-8" value="" style="group" vertex="1" connectable="0" parent="1">
          <mxGeometry x="230" y="380" width="160" height="30" as="geometry" />
        </mxCell>
        <mxCell id="5Ftsby0MKJ4DKYGOOYDx-3" value="1.- Introducir(Libro)" style="text;html=1;align=center;verticalAlign=middle;resizable=0;points=[];autosize=1;strokeColor=none;fillColor=none;" vertex="1" parent="5Ftsby0MKJ4DKYGOOYDx-8">
          <mxGeometry x="10" width="130" height="30" as="geometry" />
        </mxCell>
        <mxCell id="5Ftsby0MKJ4DKYGOOYDx-7" value="" style="html=1;verticalAlign=bottom;labelBackgroundColor=none;endArrow=block;endFill=1;rounded=0;" edge="1" parent="5Ftsby0MKJ4DKYGOOYDx-8">
          <mxGeometry width="160" relative="1" as="geometry">
            <mxPoint y="30" as="sourcePoint" />
            <mxPoint x="160" y="30" as="targetPoint" />
          </mxGeometry>
        </mxCell>
        <mxCell id="5Ftsby0MKJ4DKYGOOYDx-9" value="" style="group;rotation=-33;" vertex="1" connectable="0" parent="1">
          <mxGeometry x="490" y="310" width="171" height="33" as="geometry" />
        </mxCell>
        <mxCell id="5Ftsby0MKJ4DKYGOOYDx-10" value="3.- Comprobar Almacén (Libro)" style="text;html=1;align=center;verticalAlign=middle;resizable=0;points=[];autosize=1;strokeColor=none;fillColor=none;rotation=-33;" vertex="1" parent="5Ftsby0MKJ4DKYGOOYDx-9">
          <mxGeometry x="-19" y="3" width="190" height="30" as="geometry" />
        </mxCell>
        <mxCell id="5Ftsby0MKJ4DKYGOOYDx-11" value="" style="html=1;verticalAlign=bottom;labelBackgroundColor=none;endArrow=block;endFill=1;rounded=0;" edge="1" parent="5Ftsby0MKJ4DKYGOOYDx-9">
          <mxGeometry width="160" relative="1" as="geometry">
            <mxPoint x="21" y="71" as="sourcePoint" />
            <mxPoint x="155" y="-16" as="targetPoint" />
          </mxGeometry>
        </mxCell>
        <mxCell id="5Ftsby0MKJ4DKYGOOYDx-12" value="" style="group;rotation=0;" vertex="1" connectable="0" parent="1">
          <mxGeometry x="550" y="390" width="160" height="33" as="geometry" />
        </mxCell>
        <mxCell id="5Ftsby0MKJ4DKYGOOYDx-13" value="2.- Buscar(Libro)" style="text;html=1;align=center;verticalAlign=middle;resizable=0;points=[];autosize=1;strokeColor=none;fillColor=none;rotation=0;" vertex="1" parent="5Ftsby0MKJ4DKYGOOYDx-12">
          <mxGeometry x="21" y="1" width="110" height="30" as="geometry" />
        </mxCell>
        <mxCell id="5Ftsby0MKJ4DKYGOOYDx-14" value="" style="html=1;verticalAlign=bottom;labelBackgroundColor=none;endArrow=block;endFill=1;rounded=0;" edge="1" parent="5Ftsby0MKJ4DKYGOOYDx-12">
          <mxGeometry width="160" relative="1" as="geometry">
            <mxPoint x="1" y="30" as="sourcePoint" />
            <mxPoint x="161" y="30" as="targetPoint" />
          </mxGeometry>
        </mxCell>
        <mxCell id="5Ftsby0MKJ4DKYGOOYDx-15" value="Almacen" style="fontStyle=0;html=1;whiteSpace=wrap;" vertex="1" parent="1">
          <mxGeometry x="650" y="270" width="120" height="40" as="geometry" />
        </mxCell>
        <mxCell id="5Ftsby0MKJ4DKYGOOYDx-16" value="Informacion de prestatarios" style="fontStyle=0;html=1;whiteSpace=wrap;" vertex="1" parent="1">
          <mxGeometry x="661" y="560" width="120" height="40" as="geometry" />
        </mxCell>
        <mxCell id="5Ftsby0MKJ4DKYGOOYDx-17" value="" style="group;rotation=41;" vertex="1" connectable="0" parent="1">
          <mxGeometry x="540" y="470" width="177" height="33" as="geometry" />
        </mxCell>
        <mxCell id="5Ftsby0MKJ4DKYGOOYDx-18" value="4.- Comprobar información(Libro)" style="text;html=1;align=center;verticalAlign=middle;resizable=0;points=[];autosize=1;strokeColor=none;fillColor=none;rotation=41;" vertex="1" parent="5Ftsby0MKJ4DKYGOOYDx-17">
          <mxGeometry x="-22" y="-3" width="200" height="30" as="geometry" />
        </mxCell>
        <mxCell id="5Ftsby0MKJ4DKYGOOYDx-19" value="" style="html=1;verticalAlign=bottom;labelBackgroundColor=none;endArrow=block;endFill=1;rounded=0;" edge="1" parent="5Ftsby0MKJ4DKYGOOYDx-17">
          <mxGeometry width="160" relative="1" as="geometry">
            <mxPoint x="12" y="-27" as="sourcePoint" />
            <mxPoint x="132" y="78" as="targetPoint" />
          </mxGeometry>
        </mxCell>
        <mxCell id="5Ftsby0MKJ4DKYGOOYDx-20" value="Sistema de prestamos" style="fontStyle=0;html=1;whiteSpace=wrap;" vertex="1" parent="1">
          <mxGeometry x="420" y="700" width="120" height="40" as="geometry" />
        </mxCell>
        <mxCell id="5Ftsby0MKJ4DKYGOOYDx-25" value="" style="endArrow=none;html=1;rounded=0;" edge="1" parent="1">
          <mxGeometry width="50" height="50" relative="1" as="geometry">
            <mxPoint x="540" y="429.5" as="sourcePoint" />
            <mxPoint x="710" y="430" as="targetPoint" />
            <Array as="points">
              <mxPoint x="640" y="429.5" />
            </Array>
          </mxGeometry>
        </mxCell>
        <mxCell id="5Ftsby0MKJ4DKYGOOYDx-26" value="" style="endArrow=none;html=1;rounded=0;" edge="1" parent="1">
          <mxGeometry width="50" height="50" relative="1" as="geometry">
            <mxPoint x="537" y="450" as="sourcePoint" />
            <mxPoint x="660" y="560" as="targetPoint" />
            <Array as="points" />
          </mxGeometry>
        </mxCell>
        <mxCell id="5Ftsby0MKJ4DKYGOOYDx-27" value="" style="group" vertex="1" connectable="0" parent="1">
          <mxGeometry x="489.99875" y="459.9987878787879" width="30" height="230" as="geometry" />
        </mxCell>
        <mxCell id="5Ftsby0MKJ4DKYGOOYDx-22" value="5.- Crear préstamos&amp;nbsp;información(Libro)" style="text;html=1;align=center;verticalAlign=middle;resizable=0;points=[];autosize=1;strokeColor=none;fillColor=none;rotation=90;" vertex="1" parent="5Ftsby0MKJ4DKYGOOYDx-27">
          <mxGeometry x="-100" y="100" width="230" height="30" as="geometry" />
        </mxCell>
        <mxCell id="5Ftsby0MKJ4DKYGOOYDx-24" value="" style="html=1;verticalAlign=bottom;labelBackgroundColor=none;endArrow=block;endFill=1;rounded=0;" edge="1" parent="5Ftsby0MKJ4DKYGOOYDx-27">
          <mxGeometry width="160" relative="1" as="geometry">
            <mxPoint x="4.001250000000027" y="30.00121212121212" as="sourcePoint" />
            <mxPoint x="2.0012500000000273" y="200.00121212121212" as="targetPoint" />
          </mxGeometry>
        </mxCell>
        <mxCell id="5Ftsby0MKJ4DKYGOOYDx-28" value="" style="endArrow=none;html=1;rounded=0;" edge="1" parent="1" target="5Ftsby0MKJ4DKYGOOYDx-20">
          <mxGeometry width="50" height="50" relative="1" as="geometry">
            <mxPoint x="450" y="450" as="sourcePoint" />
            <mxPoint x="540" y="570" as="targetPoint" />
            <Array as="points">
              <mxPoint x="480" y="450" />
            </Array>
          </mxGeometry>
        </mxCell>
        <mxCell id="5Ftsby0MKJ4DKYGOOYDx-29" value="GUI" style="shape=umlBoundary;whiteSpace=wrap;html=1;" vertex="1" parent="1">
          <mxGeometry x="440" y="920" width="100" height="80" as="geometry" />
        </mxCell>
        <mxCell id="5Ftsby0MKJ4DKYGOOYDx-30" value="Actor" style="shape=umlActor;verticalLabelPosition=bottom;verticalAlign=top;html=1;" vertex="1" parent="1">
          <mxGeometry x="190" y="930" width="60" height="80" as="geometry" />
        </mxCell>
        <mxCell id="5Ftsby0MKJ4DKYGOOYDx-31" value="Inversion" style="shape=umlBoundary;whiteSpace=wrap;html=1;" vertex="1" parent="1">
          <mxGeometry x="440" y="1120" width="100" height="80" as="geometry" />
        </mxCell>
        <mxCell id="5Ftsby0MKJ4DKYGOOYDx-32" value="Hipotecas" style="shape=umlBoundary;whiteSpace=wrap;html=1;" vertex="1" parent="1">
          <mxGeometry x="710" y="920" width="100" height="80" as="geometry" />
        </mxCell>
        <mxCell id="5Ftsby0MKJ4DKYGOOYDx-33" value="Informe de hipotecas" style="shape=umlBoundary;whiteSpace=wrap;html=1;" vertex="1" parent="1">
          <mxGeometry x="930" y="920" width="100" height="80" as="geometry" />
        </mxCell>
        <mxCell id="5Ftsby0MKJ4DKYGOOYDx-35" value="" style="line;strokeWidth=1;fillColor=none;align=left;verticalAlign=middle;spacingTop=-1;spacingLeft=3;spacingRight=3;rotatable=0;labelPosition=right;points=[];portConstraint=eastwest;strokeColor=inherit;" vertex="1" parent="1">
          <mxGeometry x="250" y="956" width="190" height="8" as="geometry" />
        </mxCell>
        <mxCell id="5Ftsby0MKJ4DKYGOOYDx-36" value="1.- Solicitar (Informe)" style="html=1;verticalAlign=bottom;endArrow=block;edgeStyle=elbowEdgeStyle;elbow=vertical;curved=0;rounded=0;" edge="1" parent="1">
          <mxGeometry width="80" relative="1" as="geometry">
            <mxPoint x="290" y="940" as="sourcePoint" />
            <mxPoint x="370" y="940" as="targetPoint" />
          </mxGeometry>
        </mxCell>
        <mxCell id="5Ftsby0MKJ4DKYGOOYDx-37" value="2.-Transferir solicitud" style="html=1;verticalAlign=bottom;endArrow=block;edgeStyle=elbowEdgeStyle;elbow=vertical;curved=0;rounded=0;" edge="1" parent="1">
          <mxGeometry width="80" relative="1" as="geometry">
            <mxPoint x="581" y="950" as="sourcePoint" />
            <mxPoint x="661" y="950" as="targetPoint" />
          </mxGeometry>
        </mxCell>
        <mxCell id="5Ftsby0MKJ4DKYGOOYDx-38" value="" style="line;strokeWidth=1;fillColor=none;align=left;verticalAlign=middle;spacingTop=-1;spacingLeft=3;spacingRight=3;rotatable=0;labelPosition=right;points=[];portConstraint=eastwest;strokeColor=inherit;" vertex="1" parent="1">
          <mxGeometry x="540" y="956" width="170" height="8" as="geometry" />
        </mxCell>
        <mxCell id="5Ftsby0MKJ4DKYGOOYDx-44" value="" style="endArrow=none;html=1;rounded=0;entryX=0.6;entryY=1;entryDx=0;entryDy=0;entryPerimeter=0;exitX=0.61;exitY=-0.012;exitDx=0;exitDy=0;exitPerimeter=0;" edge="1" parent="1" source="5Ftsby0MKJ4DKYGOOYDx-31" target="5Ftsby0MKJ4DKYGOOYDx-29">
          <mxGeometry width="50" height="50" relative="1" as="geometry">
            <mxPoint x="500" y="1060" as="sourcePoint" />
            <mxPoint x="550" y="1010" as="targetPoint" />
          </mxGeometry>
        </mxCell>
        <mxCell id="5Ftsby0MKJ4DKYGOOYDx-45" value="" style="line;strokeWidth=1;fillColor=none;align=left;verticalAlign=middle;spacingTop=-1;spacingLeft=3;spacingRight=3;rotatable=0;labelPosition=right;points=[];portConstraint=eastwest;strokeColor=inherit;" vertex="1" parent="1">
          <mxGeometry x="810" y="956" width="130" height="8" as="geometry" />
        </mxCell>
        <mxCell id="5Ftsby0MKJ4DKYGOOYDx-46" value="[2.-Solicitud de Hipoteca]" style="text;html=1;align=center;verticalAlign=middle;resizable=0;points=[];autosize=1;strokeColor=none;fillColor=none;" vertex="1" parent="1">
          <mxGeometry x="545" y="900" width="160" height="30" as="geometry" />
        </mxCell>
        <mxCell id="5Ftsby0MKJ4DKYGOOYDx-47" value="[4.3.-Solicitud de inversion]" style="text;html=1;align=center;verticalAlign=middle;resizable=0;points=[];autosize=1;strokeColor=none;fillColor=none;rotation=-90;" vertex="1" parent="1">
          <mxGeometry x="375" y="1050" width="170" height="30" as="geometry" />
        </mxCell>
        <mxCell id="5Ftsby0MKJ4DKYGOOYDx-48" value="4.-Transferir solicitud" style="html=1;verticalAlign=bottom;endArrow=block;edgeStyle=elbowEdgeStyle;elbow=vertical;curved=0;rounded=0;" edge="1" parent="1">
          <mxGeometry width="80" relative="1" as="geometry">
            <mxPoint x="530" y="1027.25" as="sourcePoint" />
            <mxPoint x="530" y="1102.75" as="targetPoint" />
          </mxGeometry>
        </mxCell>
        <mxCell id="5Ftsby0MKJ4DKYGOOYDx-49" value="Informe de inversion" style="shape=umlBoundary;whiteSpace=wrap;html=1;" vertex="1" parent="1">
          <mxGeometry x="440" y="1300" width="100" height="80" as="geometry" />
        </mxCell>
        <mxCell id="5Ftsby0MKJ4DKYGOOYDx-50" value="" style="endArrow=none;html=1;rounded=0;exitX=0.61;exitY=-0.012;exitDx=0;exitDy=0;exitPerimeter=0;" edge="1" parent="1">
          <mxGeometry width="50" height="50" relative="1" as="geometry">
            <mxPoint x="501" y="1300" as="sourcePoint" />
            <mxPoint x="500" y="1200" as="targetPoint" />
          </mxGeometry>
        </mxCell>
        <mxCell id="5Ftsby0MKJ4DKYGOOYDx-51" value="" style="endArrow=block;dashed=1;endFill=0;endSize=12;html=1;rounded=0;" edge="1" parent="1">
          <mxGeometry width="160" relative="1" as="geometry">
            <mxPoint x="420" y="969.5" as="sourcePoint" />
            <mxPoint x="250" y="969.5" as="targetPoint" />
          </mxGeometry>
        </mxCell>
        <mxCell id="5Ftsby0MKJ4DKYGOOYDx-52" value="2.1.-Imprimir la hipoteca" style="html=1;verticalAlign=bottom;endArrow=block;edgeStyle=elbowEdgeStyle;elbow=vertical;curved=0;rounded=0;" edge="1" parent="1">
          <mxGeometry width="80" relative="1" as="geometry">
            <mxPoint x="829" y="953" as="sourcePoint" />
            <mxPoint x="909" y="953" as="targetPoint" />
          </mxGeometry>
        </mxCell>
        <mxCell id="5Ftsby0MKJ4DKYGOOYDx-53" value="" style="endArrow=block;dashed=1;endFill=0;endSize=12;html=1;rounded=0;" edge="1" parent="1">
          <mxGeometry width="160" relative="1" as="geometry">
            <mxPoint x="700" y="970" as="sourcePoint" />
            <mxPoint x="545" y="969.5" as="targetPoint" />
          </mxGeometry>
        </mxCell>
        <mxCell id="5Ftsby0MKJ4DKYGOOYDx-54" value="" style="endArrow=block;dashed=1;endFill=0;endSize=12;html=1;rounded=0;" edge="1" parent="1">
          <mxGeometry width="160" relative="1" as="geometry">
            <mxPoint x="940" y="970" as="sourcePoint" />
            <mxPoint x="810" y="969.5" as="targetPoint" />
          </mxGeometry>
        </mxCell>
        <mxCell id="5Ftsby0MKJ4DKYGOOYDx-55" value="[2.1Solicitud de Hipoteca]" style="text;html=1;align=center;verticalAlign=middle;resizable=0;points=[];autosize=1;strokeColor=none;fillColor=none;" vertex="1" parent="1">
          <mxGeometry x="790" y="900" width="160" height="30" as="geometry" />
        </mxCell>
        <mxCell id="5Ftsby0MKJ4DKYGOOYDx-56" value="[2.2Solicitud de Hipoteca]" style="text;html=1;align=center;verticalAlign=middle;resizable=0;points=[];autosize=1;strokeColor=none;fillColor=none;" vertex="1" parent="1">
          <mxGeometry x="800" y="980" width="160" height="30" as="geometry" />
        </mxCell>
        <mxCell id="5Ftsby0MKJ4DKYGOOYDx-57" value="[2.3Solicitud de Hipoteca]" style="text;html=1;align=center;verticalAlign=middle;resizable=0;points=[];autosize=1;strokeColor=none;fillColor=none;" vertex="1" parent="1">
          <mxGeometry x="557" y="980" width="160" height="30" as="geometry" />
        </mxCell>
        <mxCell id="5Ftsby0MKJ4DKYGOOYDx-59" value="4.1.-Imprimir lista de inversiones" style="html=1;verticalAlign=bottom;endArrow=block;edgeStyle=elbowEdgeStyle;elbow=vertical;curved=0;rounded=0;" edge="1" parent="1">
          <mxGeometry width="80" relative="1" as="geometry">
            <mxPoint x="540" y="1220" as="sourcePoint" />
            <mxPoint x="540" y="1295.5" as="targetPoint" />
          </mxGeometry>
        </mxCell>
        <mxCell id="5Ftsby0MKJ4DKYGOOYDx-60" value="" style="endArrow=block;dashed=1;endFill=0;endSize=12;html=1;rounded=0;" edge="1" parent="1">
          <mxGeometry width="160" relative="1" as="geometry">
            <mxPoint x="420" y="1300" as="sourcePoint" />
            <mxPoint x="420" y="1180" as="targetPoint" />
          </mxGeometry>
        </mxCell>
        <mxCell id="5Ftsby0MKJ4DKYGOOYDx-61" value="" style="endArrow=block;dashed=1;endFill=0;endSize=12;html=1;rounded=0;" edge="1" parent="1">
          <mxGeometry width="160" relative="1" as="geometry">
            <mxPoint x="430" y="1120" as="sourcePoint" />
            <mxPoint x="430" y="1000" as="targetPoint" />
          </mxGeometry>
        </mxCell>
        <mxCell id="5Ftsby0MKJ4DKYGOOYDx-62" value="4.2 Impresion ok" style="text;html=1;align=center;verticalAlign=middle;resizable=0;points=[];autosize=1;strokeColor=none;fillColor=none;rotation=-90;" vertex="1" parent="1">
          <mxGeometry x="340" y="1238" width="110" height="30" as="geometry" />
        </mxCell>
        <mxCell id="5Ftsby0MKJ4DKYGOOYDx-63" value="4.3 Impresion ok" style="text;html=1;align=center;verticalAlign=middle;resizable=0;points=[];autosize=1;strokeColor=none;fillColor=none;rotation=-90;" vertex="1" parent="1">
          <mxGeometry x="350" y="1040" width="110" height="30" as="geometry" />
        </mxCell>
        <mxCell id="5Ftsby0MKJ4DKYGOOYDx-64" value="[4.-Solicitud de inversion]" style="text;html=1;align=center;verticalAlign=middle;resizable=0;points=[];autosize=1;strokeColor=none;fillColor=none;rotation=-90;" vertex="1" parent="1">
          <mxGeometry x="520" y="1070" width="160" height="30" as="geometry" />
        </mxCell>
        <mxCell id="5Ftsby0MKJ4DKYGOOYDx-65" value="[4.1.-Solicitud de inversion]" style="text;html=1;align=center;verticalAlign=middle;resizable=0;points=[];autosize=1;strokeColor=none;fillColor=none;rotation=-90;" vertex="1" parent="1">
          <mxGeometry x="575" y="1240" width="170" height="30" as="geometry" />
        </mxCell>
        <mxCell id="5Ftsby0MKJ4DKYGOOYDx-66" value="[4.2.-Solicitud de inversion]" style="text;html=1;align=center;verticalAlign=middle;resizable=0;points=[];autosize=1;strokeColor=none;fillColor=none;rotation=-90;" vertex="1" parent="1">
          <mxGeometry x="360" y="1238" width="170" height="30" as="geometry" />
        </mxCell>
        <mxCell id="5Ftsby0MKJ4DKYGOOYDx-67" value="5.1 Impresion ok" style="text;html=1;align=center;verticalAlign=middle;resizable=0;points=[];autosize=1;strokeColor=none;fillColor=none;" vertex="1" parent="1">
          <mxGeometry x="280" y="970" width="110" height="30" as="geometry" />
        </mxCell>
      </root>
    </mxGraphModel>
  </diagram>
</mxfile>
